<svg xmlns="http://www.w3.org/2000/svg" viewBox="0 0 700 370"><rect width="700" height="370" fill="#553e88"/><circle cx="60" cy="30" r="140" fill="#ffca66" opacity=".12"/><circle cx="670" cy="345" r="155" fill="#ffca66" opacity=".13"/><g fill="#ffca66" opacity=".8"><circle cx="73" cy="91" r="7"/><circle cx="604" cy="51" r="7"/><path d="M87 244v26m-13-13h26M578 118v20m-10-10h20" stroke="#ffca66" stroke-width="4"/></g><rect x="170" y="70" width="350" height="195" rx="18" fill="#172a45"/><rect x="185" y="85" width="320" height="150" rx="8" fill="#eee7ff"/><path d="M317 117l65 40-65 40z" fill="#f16d6f"/><rect x="100" y="185" width="180" height="115" rx="10" fill="#172a45"/><path d="M100 185h180v30H100z" fill="#fff"/><path d="M115 185l24 30m18-30 24 30m18-30 24 30m18-30 24 30" stroke="#172a45" stroke-width="15"/><path d="M550 204h62l-10 97h-45z" fill="#ffcc71"/><path d="M553 217h58" stroke="#fff" stroke-width="8"/><g fill="#fff0cc"><circle cx="562" cy="199" r="14"/><circle cx="581" cy="189" r="17"/><circle cx="603" cy="197" r="16"/></g></svg>