<svg xmlns="http://www.w3.org/2000/svg" viewBox="0 0 700 370"><rect width="700" height="370" fill="#146c77"/><circle cx="60" cy="30" r="140" fill="#f1cc65" opacity=".12"/><circle cx="670" cy="345" r="155" fill="#f1cc65" opacity=".13"/><g fill="#f1cc65" opacity=".8"><circle cx="73" cy="91" r="7"/><circle cx="604" cy="51" r="7"/><path d="M87 244v26m-13-13h26M578 118v20m-10-10h20" stroke="#f1cc65" stroke-width="4"/></g><rect x="145" y="55" width="410" height="265" rx="12" fill="#fff"/><rect x="162" y="73" width="175" height="226" rx="5" fill="#8ed8df"/><rect x="350" y="73" width="185" height="100" rx="5" fill="#f8ce71"/><rect x="350" y="186" width="185" height="113" rx="5" fill="#ee9e94"/><path d="M191 151l32-38 17 30 45-12-22 50 21 26-60-7-32 29 8-49z" fill="#ffcc5b"/><path d="M197 242q54-57 112 0" fill="#215d78"/><ellipse cx="265" cy="104" rx="59" ry="28" fill="#fff"/><path d="M229 124l-12 27 39-24" fill="#fff"/><path d="M392 110h93m-93 19h62" stroke="#27526a" stroke-width="8" stroke-linecap="round"/><path d="M392 217l35 61 42-58" fill="#fff0cd"/></svg>